<?xml version="1.0" encoding="UTF-8"?>
<svg viewBox="0 0 216 120" version="1.1" xmlns="http://www.w3.org/2000/svg" xmlns:xlink="http://www.w3.org/1999/xlink">
    <!-- Generator: Sketch 46.2 (44496) - http://www.bohemiancoding.com/sketch -->
    <title>Group 19</title>
    <desc>Created with Sketch.</desc>
    <defs>
        <polygon id="path-1" points="17.8980866 13.3030209 17.8980866 0.210573134 0.209208711 0.210573134 0.209208711 13.3030209 17.8980866 13.3030209"></polygon>
    </defs>
    <g id="Prototype---App-Pictograms" stroke="none" stroke-width="1" fill="none" fill-rule="evenodd">
        <g id="Conversation-Content---Home-Screen" transform="translate(-544.000000, -320.000000)">
            <g id="Group-19" transform="translate(544.000000, 320.000000)">
                <g id="Group-17">
                    <rect id="Rectangle-2" fill="#48464D" x="0" y="0" width="24" height="120"></rect>
                    <rect id="Rectangle-2" fill="#39373E" x="0" y="0" width="216" height="8"></rect>
                    <rect id="Rectangle-3" fill="#F7F5FC" x="24" y="8" width="192" height="20"></rect>
                    <rect id="Rectangle-4" fill-opacity="0.15" fill="#48464D" x="30" y="23" width="18" height="4"></rect>
                    <rect id="Rectangle-4" fill-opacity="0.15" fill="#48464D" x="50" y="23" width="18" height="4"></rect>
                    <rect id="Rectangle-4" fill-opacity="0.15" fill="#48464D" x="70" y="23" width="18" height="4"></rect>
                    <rect id="Rectangle-4" fill-opacity="0.15" fill="#48464D" x="110" y="23" width="18" height="4"></rect>
                    <rect id="Rectangle-4" fill-opacity="0.15" fill="#48464D" x="130" y="23" width="6" height="4"></rect>
                    <rect id="Rectangle-4" fill="#FFFFFF" x="90" y="23" width="18" height="4"></rect>
                    <rect id="Rectangle-4" fill="#FFFFFF" x="24" y="27" width="192" height="93"></rect>
                    <rect id="Rectangle" fill="#239EDB" x="30" y="16" width="28" height="4"></rect>
                    <rect id="Rectangle" fill-opacity="0.15" fill="#48464D" x="62" y="16" width="4" height="4"></rect>
                    <rect id="Rectangle" fill-opacity="0.15" fill="#48464D" x="68" y="16" width="4" height="4"></rect>
                    <rect id="Rectangle" fill-opacity="0.15" fill="#48464D" x="74" y="16" width="4" height="4"></rect>
                    <rect id="Rectangle" fill-opacity="0.15" fill="#48464D" x="80" y="16" width="4" height="4"></rect>
                    <rect id="Rectangle" fill-opacity="0.15" fill="#48464D" x="86" y="16" width="4" height="4"></rect>
                    <rect id="Rectangle" fill-opacity="0.15" fill="#F7F5FC" transform="translate(12.000000, 21.500000) scale(1, -1) translate(-12.000000, -21.500000) " x="0" y="21" width="24" height="1"></rect>
                    <rect id="Rectangle" fill-opacity="0.15" fill="#F7F5FC" transform="translate(12.000000, 28.500000) scale(1, -1) translate(-12.000000, -28.500000) " x="0" y="28" width="24" height="1"></rect>
                    <rect id="Rectangle" fill-opacity="0.15" fill="#F7F5FC" transform="translate(12.000000, 17.500000) scale(1, -1) translate(-12.000000, -17.500000) " x="0" y="14" width="24" height="7"></rect>
                    <rect id="Rectangle-5" fill-opacity="0.75" fill="#F7F5FC" x="4" y="17" width="2" height="2"></rect>
                    <rect id="Rectangle-5" fill-opacity="0.75" fill="#F7F5FC" x="4" y="24" width="2" height="2"></rect>
                    <rect id="Rectangle-6" fill-opacity="0.3" fill="#F7F5FC" x="8" y="17" width="10" height="2"></rect>
                    <rect id="Rectangle-6" fill-opacity="0.3" fill="#F7F5FC" x="4" y="3" width="10" height="2"></rect>
                    <rect id="Rectangle-6" fill-opacity="0.3" fill="#F7F5FC" x="166" y="3" width="20" height="2"></rect>
                    <rect id="Rectangle-6" fill-opacity="0.3" fill="#F7F5FC" x="157" y="3" width="4" height="2"></rect>
                    <rect id="Rectangle-6" fill="#FC4870" x="160" y="2" width="2" height="2"></rect>
                    <rect id="Rectangle-6" fill-opacity="0.3" fill="#F7F5FC" x="190" y="3" width="20" height="2"></rect>
                    <rect id="Rectangle-6" fill-opacity="0.3" fill="#F7F5FC" x="8" y="24" width="6" height="2"></rect>
                    <rect id="Rectangle" fill-opacity="0.15" fill="#F7F5FC" transform="translate(12.000000, 35.500000) scale(1, -1) translate(-12.000000, -35.500000) " x="0" y="35" width="24" height="1"></rect>
                    <rect id="Rectangle-5" fill-opacity="0.75" fill="#F7F5FC" x="4" y="31" width="2" height="2"></rect>
                    <rect id="Rectangle-6" fill-opacity="0.3" fill="#F7F5FC" x="8" y="31" width="6" height="2"></rect>
                    <rect id="Rectangle" fill-opacity="0.15" fill="#F7F5FC" transform="translate(12.000000, 42.500000) scale(1, -1) translate(-12.000000, -42.500000) " x="0" y="42" width="24" height="1"></rect>
                    <rect id="Rectangle-5" fill-opacity="0.75" fill="#F7F5FC" x="4" y="38" width="2" height="2"></rect>
                    <rect id="Rectangle-6" fill-opacity="0.3" fill="#F7F5FC" x="8" y="38" width="8" height="2"></rect>
                    <rect id="Rectangle" fill-opacity="0.15" fill="#F7F5FC" transform="translate(12.000000, 49.500000) scale(1, -1) translate(-12.000000, -49.500000) " x="0" y="49" width="24" height="1"></rect>
                    <rect id="Rectangle-5" fill-opacity="0.75" fill="#F7F5FC" x="4" y="45" width="2" height="2"></rect>
                    <rect id="Rectangle-6" fill-opacity="0.3" fill="#F7F5FC" x="8" y="45" width="6" height="2"></rect>
                    <rect id="Rectangle" fill-opacity="0.15" fill="#F7F5FC" transform="translate(12.000000, 56.500000) scale(1, -1) translate(-12.000000, -56.500000) " x="0" y="56" width="24" height="1"></rect>
                    <rect id="Rectangle-5" fill-opacity="0.75" fill="#F7F5FC" x="4" y="52" width="2" height="2"></rect>
                    <rect id="Rectangle-6" fill-opacity="0.3" fill="#F7F5FC" x="8" y="52" width="8" height="2"></rect>
                    <rect id="Rectangle-7" fill="#E3E1E8" x="30" y="31" width="42" height="20"></rect>
                    <rect id="Rectangle-7" fill="#E3E1E8" x="76" y="31" width="42" height="20"></rect>
                    <rect id="Rectangle-7" fill="#E3E1E8" x="122" y="31" width="42" height="20"></rect>
                    <rect id="Rectangle-7" fill="#E3E1E8" x="168" y="31" width="42" height="20"></rect>
                    <rect id="Rectangle" fill="#239EDB" x="32" y="41" width="12" height="8"></rect>
                    <rect id="Rectangle" fill-opacity="0.3" fill="#48464D" x="78" y="41" width="12" height="8"></rect>
                    <rect id="Rectangle" fill="#239EDB" x="128" y="39" width="18" height="2"></rect>
                    <rect id="Rectangle" fill="#239EDB" x="174" y="39" width="18" height="2"></rect>
                    <rect id="Rectangle" fill="#239EDB" x="128" y="43" width="18" height="2"></rect>
                    <rect id="Rectangle" fill="#239EDB" x="174" y="43" width="18" height="2"></rect>
                    <rect id="Rectangle" fill-opacity="0.3" fill="#48464D" x="32" y="33" width="18" height="2"></rect>
                    <rect id="Rectangle" fill-opacity="0.3" fill="#48464D" x="78" y="33" width="18" height="2"></rect>
                    <rect id="Rectangle" fill-opacity="0.3" fill="#48464D" x="124" y="33" width="18" height="2"></rect>
                    <rect id="Rectangle" fill-opacity="0.3" fill="#48464D" x="124" y="39" width="2" height="2"></rect>
                    <rect id="Rectangle" fill-opacity="0.3" fill="#48464D" x="170" y="39" width="2" height="2"></rect>
                    <rect id="Rectangle" fill-opacity="0.3" fill="#48464D" x="124" y="43" width="2" height="2"></rect>
                    <rect id="Rectangle" fill-opacity="0.3" fill="#48464D" x="170" y="43" width="2" height="2"></rect>
                    <rect id="Rectangle" fill="#239EDB" x="128" y="47" width="18" height="2"></rect>
                    <rect id="Rectangle" fill="#239EDB" x="174" y="47" width="18" height="2"></rect>
                    <rect id="Rectangle" fill-opacity="0.3" fill="#48464D" x="124" y="47" width="2" height="2"></rect>
                    <rect id="Rectangle" fill-opacity="0.3" fill="#48464D" x="170" y="47" width="2" height="2"></rect>
                    <rect id="Rectangle" fill-opacity="0.3" fill="#48464D" x="170" y="33" width="18" height="2"></rect>
                    <g id="Group-5" transform="translate(32.000000, 59.000000)">
                        <g id="Group-4" transform="translate(16.000000, 48.000000)">
                            <rect id="Rectangle" fill="#ED556D" x="0" y="0" width="2" height="2"></rect>
                            <rect id="Rectangle" fill="#77B232" x="10" y="4" width="2" height="2"></rect>
                            <rect id="Rectangle" fill="#9C73B2" x="18" y="0" width="2" height="2"></rect>
                            <rect id="Rectangle" fill="#F9B800" x="28" y="4" width="2" height="2"></rect>
                            <rect id="Rectangle" fill-opacity="0.3" fill="#48464D" x="4" y="0" width="10" height="2"></rect>
                            <rect id="Rectangle" fill-opacity="0.3" fill="#48464D" x="14" y="4" width="10" height="2"></rect>
                            <rect id="Rectangle" fill-opacity="0.3" fill="#48464D" x="22" y="0" width="10" height="2"></rect>
                            <rect id="Rectangle" fill-opacity="0.3" fill="#48464D" x="32" y="4" width="10" height="2"></rect>
                            <rect id="Rectangle" fill="#31A6AF" x="36" y="0" width="2" height="2"></rect>
                            <rect id="Rectangle" fill-opacity="0.3" fill="#48464D" x="40" y="0" width="10" height="2"></rect>
                        </g>
                        <rect id="Rectangle" fill-opacity="0.3" fill="#48464D" x="0" y="0" width="4" height="2"></rect>
                        <rect id="Rectangle" fill-opacity="0.3" fill="#48464D" x="0" y="10" width="4" height="2"></rect>
                        <rect id="Rectangle" fill-opacity="0.3" fill="#48464D" x="0" y="20" width="4" height="2"></rect>
                        <rect id="Rectangle" fill-opacity="0.3" fill="#48464D" x="0" y="30" width="4" height="2"></rect>
                        <rect id="Rectangle" fill-opacity="0.3" fill="#48464D" x="0" y="40" width="4" height="2"></rect>
                        <rect id="Rectangle-9" fill-opacity="0.15" fill="#48464D" x="8" y="40" width="76" height="1"></rect>
                        <rect id="Rectangle-9" fill-opacity="0.05" fill="#48464D" x="8" y="30" width="76" height="1"></rect>
                        <rect id="Rectangle-9" fill-opacity="0.05" fill="#48464D" x="8" y="20" width="76" height="1"></rect>
                        <rect id="Rectangle-9" fill-opacity="0.05" fill="#48464D" x="8" y="10" width="76" height="1"></rect>
                        <rect id="Rectangle-9" fill-opacity="0.05" fill="#48464D" x="8" y="0" width="76" height="1"></rect>
                        <g id="Group-3" transform="translate(12.000000, 0.000000)">
                            <rect id="Rectangle-8" fill="#ED556D" x="0" y="26" width="8" height="14"></rect>
                            <rect id="Rectangle-8" fill="#ED556D" x="10" y="26" width="8" height="14"></rect>
                            <rect id="Rectangle-8" fill="#ED556D" x="20" y="24" width="8" height="16"></rect>
                            <rect id="Rectangle-8" fill="#ED556D" x="30" y="26" width="8" height="14"></rect>
                            <rect id="Rectangle-8" fill="#ED556D" x="40" y="38" width="8" height="2"></rect>
                            <rect id="Rectangle-8" fill="#ED556D" x="50" y="34" width="8" height="6"></rect>
                            <rect id="Rectangle-8" fill="#ED556D" x="60" y="32" width="8" height="8"></rect>
                            <rect id="Rectangle-8" fill="#9C73B2" transform="translate(4.000000, 21.000000) scale(1, -1) translate(-4.000000, -21.000000) " x="0" y="16" width="8" height="10"></rect>
                            <rect id="Rectangle-8" fill="#9C73B2" transform="translate(14.000000, 20.000000) scale(1, -1) translate(-14.000000, -20.000000) " x="10" y="14" width="8" height="12"></rect>
                            <rect id="Rectangle-8" fill="#9C73B2" transform="translate(24.000000, 20.000000) scale(1, -1) translate(-24.000000, -20.000000) " x="20" y="16" width="8" height="8"></rect>
                            <rect id="Rectangle-8" fill="#9C73B2" transform="translate(34.000000, 21.000000) scale(1, -1) translate(-34.000000, -21.000000) " x="30" y="16" width="8" height="10"></rect>
                            <rect id="Rectangle-8" fill="#9C73B2" transform="translate(44.000000, 33.000000) scale(1, -1) translate(-44.000000, -33.000000) " x="40" y="28" width="8" height="10"></rect>
                            <rect id="Rectangle-8" fill="#9C73B2" transform="translate(54.000000, 29.000000) scale(1, -1) translate(-54.000000, -29.000000) " x="50" y="24" width="8" height="10"></rect>
                            <rect id="Rectangle-8" fill="#9C73B2" transform="translate(64.000000, 27.000000) scale(1, -1) translate(-64.000000, -27.000000) " x="60" y="22" width="8" height="10"></rect>
                            <rect id="Rectangle-8" fill="#31A6AF" x="0" y="10" width="8" height="6"></rect>
                            <rect id="Rectangle-8" fill="#31A6AF" x="10" y="8" width="8" height="6"></rect>
                            <rect id="Rectangle-8" fill="#31A6AF" x="20" y="10" width="8" height="6"></rect>
                            <rect id="Rectangle-8" fill="#31A6AF" x="30" y="10" width="8" height="6"></rect>
                            <rect id="Rectangle-8" fill="#31A6AF" x="40" y="26" width="8" height="2"></rect>
                            <rect id="Rectangle-8" fill="#31A6AF" x="50" y="20" width="8" height="4"></rect>
                            <rect id="Rectangle-8" fill="#31A6AF" x="60" y="18" width="8" height="4"></rect>
                            <rect id="Rectangle-8" fill="#77B232" transform="translate(4.000000, 8.000000) scale(1, -1) translate(-4.000000, -8.000000) " x="0" y="6" width="8" height="4"></rect>
                            <rect id="Rectangle-8" fill="#77B232" transform="translate(14.000000, 6.000000) scale(1, -1) translate(-14.000000, -6.000000) " x="10" y="4" width="8" height="4"></rect>
                            <rect id="Rectangle-8" fill="#77B232" transform="translate(24.000000, 8.000000) scale(1, -1) translate(-24.000000, -8.000000) " x="20" y="6" width="8" height="4"></rect>
                            <rect id="Rectangle-8" fill="#77B232" transform="translate(34.000000, 7.000000) scale(1, -1) translate(-34.000000, -7.000000) " x="30" y="4" width="8" height="6"></rect>
                            <rect id="Rectangle-8" fill="#77B232" transform="translate(44.000000, 24.000000) scale(1, -1) translate(-44.000000, -24.000000) " x="40" y="22" width="8" height="4"></rect>
                            <rect id="Rectangle-8" fill="#77B232" transform="translate(54.000000, 18.000000) scale(1, -1) translate(-54.000000, -18.000000) " x="50" y="16" width="8" height="4"></rect>
                            <rect id="Rectangle-8" fill="#77B232" transform="translate(64.000000, 16.000000) scale(1, -1) translate(-64.000000, -16.000000) " x="60" y="14" width="8" height="4"></rect>
                            <rect id="Rectangle-8" fill="#F9B800" x="0" y="2" width="8" height="4"></rect>
                            <rect id="Rectangle-8" fill="#F9B800" x="10" y="0" width="8" height="4"></rect>
                            <rect id="Rectangle-8" fill="#F9B800" x="20" y="0" width="8" height="6"></rect>
                            <rect id="Rectangle-8" fill="#F9B800" x="30" y="0" width="8" height="4"></rect>
                            <rect id="Rectangle-8" fill="#F9B800" x="40" y="20" width="8" height="2"></rect>
                            <rect id="Rectangle-8" fill="#F9B800" x="50" y="14" width="8" height="2"></rect>
                            <rect id="Rectangle-8" fill="#F9B800" x="60" y="12" width="8" height="2"></rect>
                        </g>
                    </g>
                    <g id="Group-4" transform="translate(140.000000, 107.000000)">
                        <rect id="Rectangle" fill="#ED556D" x="0" y="0" width="2" height="2"></rect>
                        <rect id="Rectangle" fill="#77B232" x="10" y="4" width="2" height="2"></rect>
                        <rect id="Rectangle" fill="#9C73B2" x="18" y="0" width="2" height="2"></rect>
                        <rect id="Rectangle" fill="#F9B800" x="28" y="4" width="2" height="2"></rect>
                        <rect id="Rectangle" fill-opacity="0.3" fill="#48464D" x="4" y="0" width="10" height="2"></rect>
                        <rect id="Rectangle" fill-opacity="0.3" fill="#48464D" x="14" y="4" width="10" height="2"></rect>
                        <rect id="Rectangle" fill-opacity="0.3" fill="#48464D" x="22" y="0" width="10" height="2"></rect>
                        <rect id="Rectangle" fill-opacity="0.3" fill="#48464D" x="32" y="4" width="10" height="2"></rect>
                        <rect id="Rectangle" fill="#31A6AF" x="36" y="0" width="2" height="2"></rect>
                        <rect id="Rectangle" fill-opacity="0.3" fill="#48464D" x="40" y="0" width="10" height="2"></rect>
                    </g>
                    <g id="Group-2" transform="translate(148.000000, 61.000000)">
                        <g id="Page-1">
                            <path d="M17.6498742,17.9440657 L5.38935062,30.8519463 C-1.62258967,23.9678866 -1.81760803,12.608006 4.95359824,5.4792 C8.36641938,1.88618507 12.7368916,0.000214925373 17.6498742,0.000214925373 L17.6498742,17.9440657 Z" id="Fill-1" fill="#F9B800"></path>
                            <path d="M17.6498742,17.9440657 L33.3760695,26.0905433 C28.9506327,34.9204836 18.3223969,38.4315582 9.63694544,33.9323642 C8.00412919,33.0863642 6.70744213,32.1460657 5.38935062,30.8519463 L17.6498742,17.9440657 Z" id="Fill-3" fill="#77B232"></path>
                            <g id="Group-7" transform="translate(17.440666, 12.787522)">
                                <mask id="mask-2" fill="white">
                                    <use xlink:href="#path-1"></use>
                                </mask>
                                <g id="Clip-6"></g>
                                <path d="M0.209208711,5.15654328 L17.1752767,0.210573134 C18.4516163,4.73555821 18.0375327,9.10875224 15.935404,13.3030209 L0.209208711,5.15654328 Z" id="Fill-5" fill="#31A6AF" mask="url(#mask-2)"></path>
                            </g>
                            <path d="M17.6498742,17.9440657 L25.9360401,2.10030448 C30.3598914,4.49188657 33.2349586,8.10155821 34.6159423,12.9980955 L17.6498742,17.9440657 Z" id="Fill-8" fill="#9C73B2"></path>
                            <path d="M17.6498742,17.9440657 L17.6498742,0.000214925373 C20.7302657,0.000214925373 23.2163533,0.630483582 25.9360401,2.10030448 L17.6498742,17.9440657 Z" id="Fill-10" fill="#ED556D"></path>
                        </g>
                    </g>
                    <rect id="Rectangle-10" fill="#9C73B2" x="182" y="65" width="4" height="2"></rect>
                    <rect id="Rectangle-10" fill="#31A6AF" x="186" y="79" width="4" height="2"></rect>
                    <rect id="Rectangle-10" fill="#77B232" x="170" y="99" width="4" height="2"></rect>
                    <rect id="Rectangle-10" fill="#F9B800" x="142" y="69" width="4" height="2"></rect>
                    <rect id="Rectangle-10" fill="#ED556D" x="170" y="57" width="4" height="2"></rect>
                </g>
            </g>
        </g>
    </g>
</svg>
