<?xml version="1.0" encoding="UTF-8"?>
<svg viewBox="0 0 216 120" version="1.1" xmlns="http://www.w3.org/2000/svg" xmlns:xlink="http://www.w3.org/1999/xlink">
    <!-- Generator: Sketch 46.2 (44496) - http://www.bohemiancoding.com/sketch -->
    <title>Group 18</title>
    <desc>Created with Sketch.</desc>
    <defs></defs>
    <g id="Prototype---App-Pictograms" stroke="none" stroke-width="1" fill="none" fill-rule="evenodd">
        <g id="Conversation-Content---Home-Screen" transform="translate(-832.000000, -320.000000)">
            <g id="Group-18" transform="translate(832.000000, 320.000000)">
                <rect id="Rectangle-2" fill="#48464D" x="0" y="0" width="8" height="120"></rect>
                <rect id="Rectangle-4" fill="#FFFFFF" x="8" y="0" width="208" height="120"></rect>
                <rect id="Rectangle" fill-opacity="0.3" fill="#48464D" x="14" y="4" width="28" height="4"></rect>
                <rect id="Rectangle" fill="#E3E1E8" x="14" y="12" width="60" height="10"></rect>
                <rect id="Rectangle" fill-opacity="0.3" fill="#48464D" x="20" y="30" width="4" height="8"></rect>
                <rect id="Rectangle" fill-opacity="0.3" fill="#48464D" x="122" y="30" width="4" height="8"></rect>
                <rect id="Rectangle" fill-opacity="0.3" fill="#48464D" x="20" y="46" width="4" height="8"></rect>
                <rect id="Rectangle" fill-opacity="0.3" fill="#48464D" x="122" y="46" width="4" height="8"></rect>
                <rect id="Rectangle" fill-opacity="0.3" fill="#48464D" x="18" y="40" width="8" height="2"></rect>
                <rect id="Rectangle" fill-opacity="0.3" fill="#48464D" x="120" y="40" width="8" height="2"></rect>
                <rect id="Rectangle" fill-opacity="0.3" fill="#48464D" x="18" y="56" width="8" height="2"></rect>
                <rect id="Rectangle" fill-opacity="0.3" fill="#48464D" x="18" y="74" width="8" height="2"></rect>
                <rect id="Rectangle" fill-opacity="0.3" fill="#48464D" x="18" y="79" width="12" height="2"></rect>
                <rect id="Rectangle" fill-opacity="0.3" fill="#48464D" x="18" y="84" width="10" height="2"></rect>
                <rect id="Rectangle" fill-opacity="0.3" fill="#48464D" x="18" y="89" width="14" height="2"></rect>
                <rect id="Rectangle" fill-opacity="0.3" fill="#48464D" x="18" y="94" width="8" height="2"></rect>
                <rect id="Rectangle" fill-opacity="0.3" fill="#48464D" x="18" y="99" width="6" height="2"></rect>
                <rect id="Rectangle" fill-opacity="0.3" fill="#48464D" x="18" y="104" width="10" height="2"></rect>
                <rect id="Rectangle" fill-opacity="0.3" fill="#48464D" x="18" y="109" width="12" height="2"></rect>
                <rect id="Rectangle" fill-opacity="0.3" fill="#48464D" x="120" y="56" width="8" height="2"></rect>
                <rect id="Rectangle" fill="#ED556D" x="34" y="30" width="38" height="4"></rect>
                <rect id="Rectangle" fill="#ED556D" x="136" y="30" width="56" height="4"></rect>
                <rect id="Rectangle" fill="#ED556D" x="34" y="46" width="36" height="4"></rect>
                <rect id="Rectangle" fill="#ED556D" x="136" y="46" width="64" height="4"></rect>
                <rect id="Rectangle" fill="#F9B800" x="34" y="34" width="46" height="4"></rect>
                <rect id="Rectangle" fill="#F9B800" x="136" y="34" width="48" height="4"></rect>
                <rect id="Rectangle" fill="#F9B800" x="34" y="50" width="26" height="4"></rect>
                <rect id="Rectangle" fill="#F9B800" x="136" y="50" width="8" height="4"></rect>
                <rect id="Rectangle" fill="#5FC3E6" x="34" y="38" width="46" height="4"></rect>
                <rect id="Rectangle" fill="#5FC3E6" x="136" y="38" width="44" height="4"></rect>
                <rect id="Rectangle" fill="#5FC3E6" x="34" y="54" width="26" height="4"></rect>
                <rect id="Rectangle" fill="#5FC3E6" x="136" y="54" width="12" height="4"></rect>
                <rect id="Rectangle" fill="#E3E1E8" x="82" y="12" width="60" height="10"></rect>
                <rect id="Rectangle" fill="#E3E1E8" x="150" y="12" width="60" height="10"></rect>
                <rect id="Rectangle" fill="#48464D" transform="translate(4.000000, 4.000000) scale(1, -1) translate(-4.000000, -4.000000) " x="0" y="0" width="8" height="8"></rect>
                <rect id="Rectangle" fill-opacity="0.3" fill="#F7F5FC" transform="translate(4.000000, 4.000000) scale(1, -1) translate(-4.000000, -4.000000) " x="2" y="2" width="4" height="4"></rect>
                <rect id="Rectangle" fill="#48464D" transform="translate(4.000000, 12.000000) scale(1, -1) translate(-4.000000, -12.000000) " x="0" y="8" width="8" height="8"></rect>
                <rect id="Rectangle" fill="#1691CF" transform="translate(4.000000, 20.000000) scale(1, -1) translate(-4.000000, -20.000000) " x="0" y="16" width="8" height="8"></rect>
                <rect id="Rectangle" fill="#48464D" transform="translate(4.000000, 28.000000) scale(1, -1) translate(-4.000000, -28.000000) " x="0" y="24" width="8" height="8"></rect>
                <rect id="Rectangle" fill="#48464D" transform="translate(4.000000, 36.000000) scale(1, -1) translate(-4.000000, -36.000000) " x="0" y="32" width="8" height="8"></rect>
                <rect id="Rectangle-6" fill-opacity="0.3" fill="#F7F5FC" x="166" y="3" width="20" height="2"></rect>
                <rect id="Rectangle-6" fill-opacity="0.3" fill="#F7F5FC" x="157" y="3" width="4" height="2"></rect>
                <rect id="Rectangle-6" fill-opacity="0.3" fill="#F7F5FC" x="190" y="3" width="20" height="2"></rect>
                <rect id="Rectangle-6" fill-opacity="0.3" fill="#F7F5FC" x="8" y="52" width="8" height="2"></rect>
                <rect id="Rectangle-6" fill-opacity="0.3" fill="#F7F5FC" x="108" y="52" width="8" height="2"></rect>
                <g id="Group-4" transform="translate(30.000000, 64.000000)">
                    <rect id="Rectangle" fill="#ED556D" x="18" y="0" width="2" height="2"></rect>
                    <rect id="Rectangle" fill-opacity="0.3" fill="#48464D" x="0" y="0" width="2" height="2"></rect>
                    <rect id="Rectangle" fill="#F9B800" x="36" y="0" width="2" height="2"></rect>
                    <rect id="Rectangle" fill-opacity="0.3" fill="#48464D" x="22" y="0" width="10" height="2"></rect>
                    <rect id="Rectangle" fill-opacity="0.3" fill="#48464D" x="4" y="0" width="10" height="2"></rect>
                    <rect id="Rectangle" fill-opacity="0.3" fill="#48464D" x="40" y="0" width="10" height="2"></rect>
                    <rect id="Rectangle" fill="#31A6AF" x="54" y="0" width="2" height="2"></rect>
                    <rect id="Rectangle" fill-opacity="0.3" fill="#48464D" x="58" y="0" width="10" height="2"></rect>
                </g>
                <g id="Group-4" transform="translate(132.000000, 64.000000)">
                    <rect id="Rectangle" fill="#ED556D" x="18" y="0" width="2" height="2"></rect>
                    <rect id="Rectangle" fill-opacity="0.3" fill="#48464D" x="0" y="0" width="2" height="2"></rect>
                    <rect id="Rectangle" fill="#F9B800" x="36" y="0" width="2" height="2"></rect>
                    <rect id="Rectangle" fill-opacity="0.3" fill="#48464D" x="22" y="0" width="10" height="2"></rect>
                    <rect id="Rectangle" fill-opacity="0.3" fill="#48464D" x="4" y="0" width="10" height="2"></rect>
                    <rect id="Rectangle" fill-opacity="0.3" fill="#48464D" x="40" y="0" width="10" height="2"></rect>
                    <rect id="Rectangle" fill="#31A6AF" x="54" y="0" width="2" height="2"></rect>
                    <rect id="Rectangle" fill-opacity="0.3" fill="#48464D" x="58" y="0" width="10" height="2"></rect>
                </g>
                <rect id="Rectangle" fill-opacity="0.3" fill="#F7F5FC" transform="translate(4.000000, 12.000000) scale(1, -1) translate(-4.000000, -12.000000) " x="2" y="10" width="4" height="4"></rect>
                <rect id="Rectangle" fill-opacity="0.3" fill="#F7F5FC" transform="translate(4.000000, 20.000000) scale(1, -1) translate(-4.000000, -20.000000) " x="2" y="18" width="4" height="4"></rect>
                <rect id="Rectangle" fill-opacity="0.3" fill="#F7F5FC" transform="translate(4.000000, 28.000000) scale(1, -1) translate(-4.000000, -28.000000) " x="2" y="26" width="4" height="4"></rect>
                <rect id="Rectangle" fill-opacity="0.3" fill="#F7F5FC" transform="translate(4.000000, 36.000000) scale(1, -1) translate(-4.000000, -36.000000) " x="2" y="34" width="4" height="4"></rect>
                <rect id="Rectangle-11" fill="#ED556D" x="16" y="14" width="2" height="2" rx="1"></rect>
                <rect id="Rectangle-11" fill="#F9B800" x="84" y="14" width="2" height="2" rx="1"></rect>
                <rect id="Rectangle-11" fill="#5FC3E6" x="152" y="14" width="2" height="2" rx="1"></rect>
                <rect id="Rectangle-11" fill="#90A0D6" x="2" y="113" width="4" height="4" rx="2"></rect>
                <rect id="Rectangle-12" fill-opacity="0.3" fill="#48464D" x="76" y="28" width="1" height="16"></rect>
                <rect id="Rectangle-12" fill-opacity="0.3" fill="#48464D" x="194" y="28" width="1" height="16"></rect>
                <rect id="Rectangle-12" fill-opacity="0.3" fill="#48464D" x="140" y="44" width="1" height="16"></rect>
                <rect id="Rectangle" fill-opacity="0.3" fill="#48464D" x="20" y="14" width="28" height="2"></rect>
                <rect id="Rectangle" fill-opacity="0.3" fill="#48464D" x="20" y="18" width="12" height="2"></rect>
                <rect id="Rectangle" fill-opacity="0.3" fill="#48464D" x="88" y="14" width="28" height="2"></rect>
                <rect id="Rectangle" fill-opacity="0.3" fill="#48464D" x="88" y="18" width="12" height="2"></rect>
                <rect id="Rectangle" fill-opacity="0.3" fill="#48464D" x="156" y="14" width="28" height="2"></rect>
                <rect id="Rectangle" fill-opacity="0.3" fill="#48464D" x="156" y="18" width="12" height="2"></rect>
                <g id="Group-6" transform="translate(65.000000, 74.000000)">
                    <rect id="Rectangle-13" fill-opacity="0.3" fill="#48464D" x="0" y="0" width="1" height="3"></rect>
                    <rect id="Rectangle-13" fill-opacity="0.15" fill="#48464D" x="1" y="1" width="136" height="1"></rect>
                    <rect id="Rectangle-11" fill="#F9B800" x="105" y="0" width="3" height="3" rx="1.5"></rect>
                    <rect id="Rectangle-11" fill="#5FC3E6" x="94" y="0" width="3" height="3" rx="1.5"></rect>
                    <rect id="Rectangle-11" fill="#ED556D" x="135" y="0" width="3" height="3" rx="1.5"></rect>
                </g>
                <g id="Group-8" transform="translate(85.000000, 79.000000)">
                    <rect id="Rectangle-13" fill-opacity="0.3" fill="#48464D" x="0" y="0" width="1" height="3"></rect>
                    <rect id="Rectangle-13" fill-opacity="0.15" fill="#48464D" x="1" y="1" width="55" height="1"></rect>
                    <rect id="Rectangle-11" fill="#F9B800" x="54" y="0" width="3" height="3" rx="1.5"></rect>
                    <rect id="Rectangle-11" fill="#5FC3E6" x="35" y="0" width="3" height="3" rx="1.5"></rect>
                    <rect id="Rectangle-11" fill="#ED556D" x="44" y="0" width="3" height="3" rx="1.5"></rect>
                </g>
                <g id="Group-10" transform="translate(68.000000, 89.000000)">
                    <rect id="Rectangle-13" fill-opacity="0.3" fill="#48464D" x="23" y="0" width="1" height="3"></rect>
                    <rect id="Rectangle-13" fill-opacity="0.15" fill="#48464D" x="1" y="1" width="22" height="1"></rect>
                    <rect id="Rectangle-11" fill="#F9B800" x="0" y="0" width="3" height="3" rx="1.5"></rect>
                    <rect id="Rectangle-11" fill="#5FC3E6" x="10" y="0" width="3" height="3" rx="1.5"></rect>
                    <rect id="Rectangle-11" fill="#ED556D" x="3" y="0" width="3" height="3" rx="1.5"></rect>
                </g>
                <g id="Group-11" transform="translate(56.000000, 94.000000)">
                    <rect id="Rectangle-13" fill-opacity="0.3" fill="#48464D" x="0" y="0" width="1" height="3"></rect>
                    <rect id="Rectangle-13" fill-opacity="0.15" fill="#48464D" x="1" y="1" width="18" height="1"></rect>
                    <rect id="Rectangle-11" fill="#F9B800" x="9" y="0" width="3" height="3" rx="1.5"></rect>
                    <rect id="Rectangle-11" fill="#5FC3E6" x="5" y="0" width="3" height="3" rx="1.5"></rect>
                    <rect id="Rectangle-11" fill="#ED556D" x="18" y="0" width="3" height="3" rx="1.5"></rect>
                </g>
                <g id="Group-12" transform="translate(56.000000, 99.000000)">
                    <rect id="Rectangle-13" fill-opacity="0.3" fill="#48464D" x="0" y="0" width="1" height="3"></rect>
                    <rect id="Rectangle-13" fill-opacity="0.15" fill="#48464D" x="1" y="1" width="18" height="1"></rect>
                    <rect id="Rectangle-11" fill="#F9B800" x="18" y="0" width="3" height="3" rx="1.5"></rect>
                    <rect id="Rectangle-11" fill="#5FC3E6" x="6" y="0" width="3" height="3" rx="1.5"></rect>
                    <rect id="Rectangle-11" fill="#ED556D" x="9" y="0" width="3" height="3" rx="1.5"></rect>
                </g>
                <g id="Group-14" transform="translate(39.000000, 109.000000)">
                    <rect id="Rectangle-13" fill-opacity="0.3" fill="#48464D" x="0" y="0" width="1" height="3"></rect>
                    <rect id="Rectangle-13" fill-opacity="0.15" fill="#48464D" x="1" y="1" width="19" height="1"></rect>
                    <rect id="Rectangle-11" fill="#F9B800" x="11" y="0" width="3" height="3" rx="1.5"></rect>
                    <rect id="Rectangle-11" fill="#5FC3E6" x="5" y="0" width="3" height="3" rx="1.5"></rect>
                    <rect id="Rectangle-11" fill="#ED556D" x="17" y="0" width="3" height="3" rx="1.5"></rect>
                </g>
                <g id="Group-9" transform="translate(55.000000, 84.000000)">
                    <rect id="Rectangle-13" fill-opacity="0.3" fill="#48464D" x="39" y="0" width="1" height="3"></rect>
                    <rect id="Rectangle-13" fill-opacity="0.15" fill="#48464D" x="2" y="1" width="37" height="1"></rect>
                    <rect id="Rectangle-11" fill="#F9B800" x="0" y="0" width="3" height="3" rx="1.5"></rect>
                    <rect id="Rectangle-11" fill="#5FC3E6" x="21" y="0" width="3" height="3" rx="1.5"></rect>
                    <rect id="Rectangle-11" fill="#ED556D" x="0.75" y="0.75" width="1.5" height="1.5" rx="0.75"></rect>
                </g>
                <g id="Group-13" transform="translate(34.000000, 104.000000)">
                    <rect id="Rectangle-13" fill-opacity="0.3" fill="#48464D" x="23" y="0" width="1" height="3"></rect>
                    <rect id="Rectangle-13" fill-opacity="0.15" fill="#48464D" x="2" y="1" width="21" height="1"></rect>
                    <rect id="Rectangle-11" fill="#F9B800" x="0" y="0" width="3" height="3" rx="1.5"></rect>
                    <rect id="Rectangle-11" fill="#5FC3E6" x="10" y="0" width="3" height="3" rx="1.5"></rect>
                    <rect id="Rectangle-11" fill="#ED556D" x="0.75" y="0.75" width="1.5" height="1.5" rx="0.75"></rect>
                </g>
            </g>
        </g>
    </g>
</svg>
